{"title":"Max Manus.DVDrip.Norsk tale.AC3-5.1.Ripp Robban","uid":6122131,"size":1588489776,"categoryP":"video","categoryS":"movies","magnet":"?xt=urn:btih:c808fb1c8ae959063dd38d76423d2dc8ce850eb5&amp;dn=Max+Manus.DVDrip.Norsk+tale.AC3-5.1.Ripp+Robban&amp;tr=udp%3A%2F%2Ftracker.openbittorrent.com%3A80&amp;tr=udp%3A%2F%2Fopen.demonii.com%3A1337&amp;tr=udp%3A%2F%2Ftracker.coppersurfer.tk%3A6969&amp;tr=udp%3A%2F%2Fexodus.desync.com%3A6969","seeders":0,"leechers":3,"uploader":"pobban2","files":-1,"time":1295796576,"description":"Max Manus var det mest fargerike medlem av den norske motstandsbevegelsen under 2.verdenskrig. I denne filmen fÃƒÂ¥r du et innblikk i hvordan hverdagen var for Max og de andre, hva de var med pÃƒÂ¥, hvilke sjanser de tok og hva de satt igjen med da freden endelig kom etter fem lange ÃƒÂ¥r. \n\nSkuespillere Kjersti Holmen, Nicolai Cleve Broch, Aksel Hennie, Stig Henrik Hoff, Viktoria Winge, Mats EldÃƒÂ¸en, Christian Rubeck, Knut Joner, PÃƒÂ¥l Sverre Valheim Hagen, Kyrre Haugen Sydness, Agnes Kittelsen \nRegissÃƒÂ¸r Joachim Roenning, Espen Sandberg \nOriginaltittel Max Manus \nVarighet DVD: 1 tim 53 min \n \nGeneral\nComplete name                    : E:\\Filmer og videoer\\MAX_MANUS\\Max Manus.DVDrip.Norsk tale.AC3-5.1.Ripp Robban.avi\nFormat                           : AVI\nFormat/Info                      : Audio Video Interleave\nFormat profile                   : OpenDML\nFile size                        : 1.48 GiB\nDuration                         : 1h 53mn\nOverall bit rate                 : 1 874 Kbps\nWriting application              : Lavf52.78.4\n\nVideo\nID                               : 0\nFormat                           : MPEG-4 Visual\nFormat profile                   : Advanced Simple@L5\nFormat settings, BVOP            : 2\nFormat settings, QPel            : No\nFormat settings, GMC             : No warppoints\nFormat settings, Matrix          : Default (H.263)\nMuxing mode                      : Packed bitstream\nCodec ID                         : XVID\nCodec ID/Hint                    : XviD\nDuration                         : 1h 53mn\nBit rate                         : 1 478 Kbps\nWidth                            : 720 pixels\nHeight                           : 306 pixels\nDisplay aspect ratio             : 2.35:1\nFrame rate                       : 25.000 fps\nColor space                      : YUV\nChroma subsampling               : 4:2:0\nBit depth                        : 8 bits\nScan type                        : Progressive\nCompression mode                 : Lossy\nBits/(Pixel*Frame)               : 0.268\nStream size                      : 1.17 GiB (79%)\nWriting library                  : XviD 1.2.1 (UTC 2008-12-04)\n\nAudio\nID                               : 1\nFormat                           : AC-3\nFormat/Info                      : Audio Coding 3\nMode extension                   : CM (complete main)\nCodec ID                         : 2000\nDuration                         : 1h 52mn\nBit rate mode                    : Constant\nBit rate                         : 384 Kbps\nChannel(s)                       : 6 channels\nChannel positions                : Front: L C R, Side: L R, LFE\nSampling rate                    : 48.0 KHz\nBit depth                        : 16 bits\nCompression mode                 : Lossy\nStream size                      : 107 MiB (7%)\nAlignment                        : Aligned on interleaves\nInterleave, duration             : 93 ms (2.32 video frames)\nInterleave, preload duration     : 32 ms\n\n","torrent":{"xt":"urn:btih:c808fb1c8ae959063dd38d76423d2dc8ce850eb5","amp;dn":"Max+Manus.DVDrip.Norsk+tale.AC3-5.1.Ripp+Robban","amp;tr":["udp%3A%2F%2Ftracker.openbittorrent.com%3A80","udp%3A%2F%2Fopen.demonii.com%3A1337","udp%3A%2F%2Ftracker.coppersurfer.tk%3A6969","udp%3A%2F%2Fexodus.desync.com%3A6969"],"infoHash":"c808fb1c8ae959063dd38d76423d2dc8ce850eb5","infoHashBuffer":{"type":"Buffer","data":[200,8,251,28,138,233,89,6,61,211,141,118,66,61,45,200,206,133,14,181]},"announce":[],"urlList":[]}}